<svg xmlns="http://www.w3.org/2000/svg" version="1.1" xmlns:xlink="http://www.w3.org/1999/xlink" width="512" height="512" x="0" y="0" viewBox="0 0 511 511.928" style="enable-background:new 0 0 512 512" xml:space="preserve" class=""><g><path fill="#fdd7ad" d="M403.23 307.125a238.972 238.972 0 0 1-42.667 51.2c-9.473 9.3-28.075 14.077-44.801 16.042 13.64-8.949 14.449-21.82 20.781-34.277 7.14-14.035 18.992-27.55 20.348-34.332 12.375-3.84 20.738-7.168 20.738-7.168a72.373 72.373 0 0 0 11.094-7.422 94.55 94.55 0 0 0 7.593-6.656c8.79 3.156 15.618 9.554 6.914 22.613zm0 0" opacity="1" data-original="#fdd7ad" class=""></path><path fill="#dfc49c" d="M365.254 305.586c-2.559 12.8-12.117 49.582-41.129 68.61-7.727.949-15.516 1.32-23.297 1.109a14.27 14.27 0 0 1 1.707-.684c16.363-6.012 14.176-25.043 22.3-39.402 5.942-10.496 23.243-15.485 28.216-26.047 4.355-1.192 8.449-2.39 12.203-3.586zm0 0" opacity="1" data-original="#dfc49c"></path><path fill="#fec108" d="M352.027 51.125C288.883 23.047 254.578 5.129 206.45 9.055a204.34 204.34 0 0 0-33.62 5.8c-66.56 16.641-67.84 43.094-91.99 52.567 12.74 6.523 19.099 21.133 15.188 34.902-3.925 15.614-19.37 15.188-28.328 15.188h-.086a89.703 89.703 0 0 0-14.082 11.265 24.488 24.488 0 0 0-8.703 16.211 3.63 3.63 0 0 0 .086.942 129.994 129.994 0 0 0 2.988 18.09 72.183 72.183 0 0 1 5.973-9.56c6.484-8.616 15.785-14.847 25.086-.937 17.066 25.602 0 42.668-8.531 42.668-3.414 0-8.364-4.27-12.973-9.3-3.07-3.414-6.059-7.168-8.363-10.243a38.859 38.859 0 0 1-5.29 19.372 59.002 59.002 0 0 1-16.042 17.238c-17.492 13.14-10.324 21.758.851 27.05a62.278 62.278 0 0 0 7.852 3.07c3.672 1.196 7.168 2.048 10.07 2.731 4.012.856 6.828 1.282 6.828 1.282s1.364.851 3.84 2.218c.426.254.938.598 1.45.852 1.62.941 3.667 2.05 5.972 3.328 2.477 1.281 5.121 11.352 8.191 12.887h.086c2.989 1.535 6.317 3.242 9.813 4.949a314.493 314.493 0 0 0 7.683 3.582c2.813 1.281 5.801 2.648 8.79 3.84.62.289 1.28.492 1.96.598 5.887 1.109 11.864-3.41 17.75-1.45 3.84 1.282 7.594 2.39 11.262 3.328a211.678 211.678 0 0 0 36.098 4.266l30.207 1.793c28.504 1.961 56.578 5.887 70.23 19.543a31.25 31.25 0 0 0 15.188 7.848 62.139 62.139 0 0 0 10.926 1.62h.082l.597.516 51.203-7.765c11.16-3 22.157-6.59 32.938-10.754a72.373 72.373 0 0 0 11.094-7.422 94.55 94.55 0 0 0 7.593-6.656 107.08 107.08 0 0 0 32.512-79.79c0-68.265 0-119.464-76.8-153.597zm-187.73 128a29.17 29.17 0 0 1-20.395-1.879c-21.847-9.3-41.644-38.484-22.273-57.855a48.762 48.762 0 0 1 3.926-3.586c22.613-18.43 31.144 12.547 47.273 20.652a30.31 30.31 0 0 1 17.067 25.602s0 8.53-25.598 17.066zm0 0" opacity="1" data-original="#fec108"></path><path fill="#ffdc00" d="M326.43 51.125c-51.457-22.871-83.715-39-119.98-42.07a204.34 204.34 0 0 0-33.622 5.8C106.27 31.496 104.988 57.95 80.84 67.422c12.738 6.523 19.097 21.133 15.187 34.902-3.925 15.614-19.37 15.188-28.328 15.188h-.086a89.703 89.703 0 0 0-14.082 11.265 24.488 24.488 0 0 0-8.703 16.211 3.63 3.63 0 0 0 .086.942 17.488 17.488 0 0 1 8.45 7.593c.214.286.39.602.511.938a30.083 30.083 0 0 1 3.582 32.43 16.958 16.958 0 0 1-12.629 9.3c-.351.028-.7-.03-1.023-.171a59.002 59.002 0 0 1-16.043 17.238c-17.492 13.14-10.325 21.758.851 27.05a62.278 62.278 0 0 0 7.852 3.07c3.672 1.196 7.168 2.048 10.07 2.731 4.012.856 6.828 1.282 6.828 1.282s1.364.851 3.84 2.218c.426.254.938.598 1.45.852 1.62.941 3.667 2.05 5.972 3.328 2.477 1.281 5.121 11.352 8.191 12.887h.086c2.989 1.535 6.317 3.242 9.813 4.949a314.493 314.493 0 0 0 7.683 3.582c2.813 1.281 5.801 2.648 8.79 3.84.62.289 1.28.492 1.96.598 5.887 1.109 11.864-3.41 17.75-1.45 3.84 1.282 7.594 2.39 11.262 3.328a211.678 211.678 0 0 0 36.098 4.266l30.207 1.793c28.504 1.961 56.578 5.887 70.23 19.543a31.25 31.25 0 0 0 15.188 7.848l37.207-5.63a326.8 326.8 0 0 0 32.937-10.753 72.183 72.183 0 0 0 11.094-7.422 94.55 94.55 0 0 0 7.594-6.656 107.083 107.083 0 0 0 32.515-79.79c0-68.265 0-119.464-76.8-153.597zm-187.735 128c-25.601 8.531-68.265-34.137-42.668-59.734 13.227-13.227 21.934-10.496 29.528-3.586 7.168 6.402 13.48 16.472 21.675 20.652a30.318 30.318 0 0 1 17.067 25.602s0 7.336-20.395 15.187c-1.625.598-3.328 1.281-5.207 1.879zm0 0" opacity="1" data-original="#ffdc00" class=""></path><path fill="#6d4122" d="M96.027 102.324c-3.925 15.614-19.37 15.188-28.328 15.188-3.586-15.446-7-43.262 11.262-49.32a8.758 8.758 0 0 0 1.879-.77c12.738 6.523 19.097 21.133 15.187 34.902zM189.895 162.059s0 8.53-25.598 17.066a29.17 29.17 0 0 1-20.395-1.879c-21.847-9.3-41.644-38.484-22.273-57.855a48.762 48.762 0 0 1 3.926-3.586c22.613-18.43 31.144 12.547 47.273 20.652a30.31 30.31 0 0 1 17.067 25.602zm0 0" opacity="1" data-original="#6d4122" class=""></path><path fill="#91562d" d="M164.297 162.059s0 7.336-20.395 15.187c-21.847-9.3-41.644-38.484-22.273-57.855a48.762 48.762 0 0 1 3.926-3.586c7.168 6.402 13.48 16.472 21.675 20.652a30.318 30.318 0 0 1 17.067 25.602zM70.43 196.191c-5.805 0-15.703-12.035-21.336-19.543 0-4.21-.399-8.41-1.192-12.543v-.085c5.715-10.836 18.344-29.528 31.059-10.497 17.066 25.602 0 42.668-8.531 42.668zm0 0" opacity="1" data-original="#91562d"></path><path fill="#dfc49c" d="M352.027 290.059a87.203 87.203 0 0 1-7.336 19.285c-11.777 25-22.187 55.039-50.52 65.449a14.27 14.27 0 0 0-1.706.684h-.168c-22.531 8.53-44.035 19.625-67.672 23.636.77-2.242.77-4.672 0-6.914-1.96-6.57-8.105-13.226-7.254-20.05 1.195-9.985 15.106-19.97 15.106-25.09a70.859 70.859 0 0 0 27.82-5.801 105.077 105.077 0 0 0 33.191-24.149 71.6 71.6 0 0 1 5.035-5.12 70.977 70.977 0 0 0 10.84-13.4 40.13 40.13 0 0 1 14.164-13.48c14.336-7.765 28.5-1.367 28.5 4.95zm0 0" opacity="1" data-original="#dfc49c"></path><path fill="#fdd7ad" d="M326.43 290.059a87.215 87.215 0 0 1-7.34 19.285c-11.778 25-22.188 55.039-50.516 65.449-.586.191-1.156.418-1.707.684h-.172c-14.164 5.375-27.902 11.773-42.07 16.722-1.96-6.57-8.105-13.226-7.254-20.05 1.195-9.985 15.106-19.97 15.106-25.09a70.859 70.859 0 0 0 27.82-5.801 105.077 105.077 0 0 0 33.191-24.149 71.6 71.6 0 0 1 5.035-5.12 70.977 70.977 0 0 0 10.84-13.4 40.13 40.13 0 0 1 14.164-13.48 6.691 6.691 0 0 1 2.903 4.95zm0 0" opacity="1" data-original="#fdd7ad" class=""></path><path fill="#dfc49c" d="M232.477 347.059a165.603 165.603 0 0 1-7.852 52.054 100.692 100.692 0 0 1-17.664 1.621l-.168-.086c4.094-9.128-9.902-20.308-8.363-33.793 0 0 18.941-9.3 20.05-20.136 4.653.414 9.329.531 13.997.34zm0 0" opacity="1" data-original="#dfc49c"></path><path fill="#dfc49c" d="M218.48 346.719c-1.109 10.836-2.984 20.136-2.984 20.136a113.982 113.982 0 0 1-8.703 33.793c-9.914 24.614-33.082 41.344-59.563 43.008a80.757 80.757 0 0 1-39.597 41.133h-.086c-.492.316-1.004.602-1.535.852a109.33 109.33 0 0 0-4.438 11.52 8.378 8.378 0 0 1-8.02 6.23H10.696a46.439 46.439 0 0 1-1.535-17.067c1.535-28.504 18.602-68.265 18.602-68.265 0-42.668 0-42.668 34.133-85.336 21.675-27.137 8.96-61.098-3.243-82.262 1.621.941 3.668 2.05 5.973 3.328 6.656 3.586 15.703 8.277 25.773 12.887 6.059 2.816 12.543 5.547 19.028 8.105 3.156 1.196 6.316 2.39 9.472 3.414a39.368 39.368 0 0 1 .34 28.93c5 2.977 8.598 7.832 9.985 13.48a35.78 35.78 0 0 1-1.45 20.653s7.082-4.95 33.707-4.61c4.95 0 10.583.172 16.895.684h.086a77.454 77.454 0 0 1 2.902-13.14 238.951 238.951 0 0 1-15.105-38.403 54.36 54.36 0 0 1-1.961-12.8 18.662 18.662 0 0 1 14.336-17.493 8.403 8.403 0 0 1 11.262 8.96 46.139 46.139 0 0 0 3.585 16.13 81.356 81.356 0 0 0 2.985 6.996 105.232 105.232 0 0 0 5.035 9.129c1.281 2.219 2.645 4.27 4.012 6.23a84.589 84.589 0 0 0 9.984 12.715c4.524 4.524 4.266 18.774 2.984 31.063zm0 0" opacity="1" data-original="#dfc49c"></path><path fill="#ffe0b2" d="M206.195 329.652c-1.11 10.836-2.988 20.137-2.988 20.137a113.863 113.863 0 0 1-8.703 33.793c-9.91 24.613-33.082 41.344-59.563 43.008a80.765 80.765 0 0 1-39.593 41.133h-.086c-.496.316-1.008.601-1.54.851a80.493 80.493 0 0 0-4.433 11.52c-1.11 3.668 10.496 23.297 6.738 23.297H10.695a582.568 582.568 0 0 1 17.067-85.332c0-42.668 0-42.668 34.133-85.336 21.675-27.137 8.96-61.098-3.243-82.262 1.621.941 3.668 2.05 5.973 3.328 6.656 3.586 15.703 8.277 25.773 12.887 6.059 2.816 12.543 5.547 19.028 8.105.426 5.293 5.972 2.051 3.668 6.742 0 0 17.066 8.536 8.535 34.133 0 0-2.902 6.23 7.594 4.95a35.78 35.78 0 0 1-1.45 20.652s7.082-4.95 33.707-4.61c4.95 0 10.583.172 16.895.684h.086a77.454 77.454 0 0 1 2.902-13.14 238.951 238.951 0 0 1-15.105-38.403 54.36 54.36 0 0 1-1.961-12.8 18.662 18.662 0 0 1 14.336-17.493 66.286 66.286 0 0 0 2.558 8.024 81.934 81.934 0 0 0 2.989 6.996 127.388 127.388 0 0 0 17.32 26.195c.598.684 1.11 1.281 1.707 1.879a9.6 9.6 0 0 1 2.305 4.351 75.598 75.598 0 0 1 .683 26.711zm0 0" opacity="1" data-original="#ffe0b2"></path><path fill="#cbb292" d="M106.012 485.64a97.437 97.437 0 0 0-4.426 11.54 8.415 8.415 0 0 1-8.016 6.21H75.977a.317.317 0 0 1-.086-.257c-.375-2.227.152-4.516 1.464-6.356s3.301-3.082 5.532-3.457a80.177 80.177 0 0 0 23.125-7.68c-.512.34.511-.253 0 0zm0 0" opacity="1" data-original="#cbb292"></path><path d="M292.89 325.129a48.12 48.12 0 0 1-32.226-11.973c-11.926-11.926-39.445-15.316-64.785-17.062-4.656-.38-8.14-4.434-7.82-9.094a8.53 8.53 0 0 1 8.996-7.93c29.93 2.059 59.808 6.153 75.672 22.02a31.693 31.693 0 0 0 20.62 6.988 8.534 8.534 0 0 1-.456 17.05zM344.691 317.875a8.541 8.541 0 0 1-8.539-7.688 8.542 8.542 0 0 1 6.848-9.23 318.317 318.317 0 0 0 31.387-10.262 80.05 80.05 0 0 0 9.043-6.23 98.08 98.08 0 0 0 36.867-79.742c0-68.598 0-113.918-71.735-145.805l-16.699-7.465c-64.39-28.883-96.695-43.379-156.965-28.32-41.086 10.273-55.703 24.222-67.445 35.433a71.481 71.481 0 0 1-23.016 16.61c-1 .504-2.046.91-3.125 1.215-12.714 4.226-6.652 33.386-5.3 39.187a8.531 8.531 0 0 1-6.387 10.219c-4.582 1.066-9.16-1.781-10.238-6.36-7.367-31.71-1.211-53.343 16.886-59.347.473-.23.957-.434 1.454-.61a56.072 56.072 0 0 0 17.945-13.257c12.5-11.934 29.625-28.278 75.086-39.645 65.992-16.492 102.258-.223 168.086 29.305l16.652 7.445c81.867 36.383 81.867 91.55 81.867 161.395a114.848 114.848 0 0 1-43.379 93.16 79.83 79.83 0 0 1-12.539 8.34 318.138 318.138 0 0 1-34.535 11.359 8.717 8.717 0 0 1-2.219.293zm0 0" fill="#000000" opacity="1" data-original="#000000" class=""></path><path d="M67.7 126.047h-.087a8.534 8.534 0 1 1 .086 0zm0 0" fill="#000000" opacity="1" data-original="#000000" class=""></path><path d="M166.266 294.324c-.176 0-.352-.004-.528-.02a212.943 212.943 0 0 1-37.68-4.511 171.7 171.7 0 0 1-11.863-3.504 379.332 379.332 0 0 1-61.734-28.394 226.727 226.727 0 0 1-4.031-2.317c-10.543-1.683-37.114-7.488-41.211-23.484C7 223.41 11.512 214.777 22.64 206.43c15.668-11.754 17.808-22.157 17.922-29.907a57.91 57.91 0 0 0-1.075-10.984c-.027-.137-.043-.277-.058-.414-.344-1.824-.711-3.602-1.063-5.328a73.392 73.392 0 0 1-2.07-14.809 31.947 31.947 0 0 1 11.254-22.293 94.122 94.122 0 0 1 15.508-12.343 8.533 8.533 0 0 1 9.28 14.316 77.772 77.772 0 0 0-12.714 10.082 17.477 17.477 0 0 0-6.262 10.238 62.94 62.94 0 0 0 1.711 11.352c.418 1.996.84 4.05 1.223 6.164.035.2.066.39.086.586a73.474 73.474 0 0 1 1.246 13.723 53.831 53.831 0 0 1-24.746 43.269c-6.817 5.113-7.121 7.785-7.121 7.809.812 3.222 14.265 8.976 28.808 11.054a8.5 8.5 0 0 1 3.227 1.16c.066.036 1.926 1.165 5.043 2.926a370.342 370.342 0 0 0 58.738 27.063 157.267 157.267 0 0 0 10.695 3.164 211.215 211.215 0 0 0 34.504 4.02 8.534 8.534 0 0 1 7.993 8.769c-.141 4.601-3.903 8.265-8.504 8.277zm0 0" fill="#000000" opacity="1" data-original="#000000" class=""></path><path d="M10.695 511.926a8.529 8.529 0 0 1-8.093-5.836c-8.747-26.242 11.886-78.39 16.628-89.762.024-43.129 1.133-45.348 36-88.933 18.208-22.793 7.891-52.102-3.968-72.672a8.536 8.536 0 0 1 3.187-11.551 8.542 8.542 0 0 1 11.598 3.027c20.512 35.578 21.406 68.2 2.516 91.848-32.266 40.336-32.266 40.336-32.266 80.012a8.538 8.538 0 0 1-.688 3.355c-9.402 21.961-22.28 62.898-16.82 79.277a8.543 8.543 0 0 1-8.094 11.234zM101.746 511.922a10.224 10.224 0 0 1-7.887-4.274c-2.683-4.125-2.785-9.406 4.356-25.476a8.55 8.55 0 0 1 6.914-5.149c3.062-.34 6.074 1 7.875 3.504a8.537 8.537 0 0 1 .805 8.578 80.282 80.282 0 0 0-4.18 11.004 8.545 8.545 0 0 1-.781 8.016 8.522 8.522 0 0 1-7.102 3.797zm0 0" fill="#000000" opacity="1" data-original="#000000" class=""></path><path d="M78.953 503.39a8.533 8.533 0 0 1-1.41-16.945c.465-.086 46.734-8.39 61.762-45.96a8.533 8.533 0 0 1 7.925-5.36c2.086-.023 52.239-1.328 59.786-69.207a8.535 8.535 0 0 1 13.597-6.063 8.539 8.539 0 0 1 3.364 7.946c-7.645 68.781-54.387 81.508-70.946 83.863-20.281 42.418-70.465 51.246-72.664 51.613a9.043 9.043 0 0 1-1.414.114zM296.816 384.082c-1.671 0-3.234-.031-4.675-.078a8.607 8.607 0 0 1-8.293-8.688 8.46 8.46 0 0 1 8.449-8.375h.168c19.047.7 50.605-3.39 62.117-14.703a230.678 230.678 0 0 0 41.547-49.847c2.473-3.711 2.758-5.844 2.535-6.52-.2-.61-1.527-1.996-5.23-3.328a8.53 8.53 0 0 1-5.692-6.512 8.533 8.533 0 0 1 11.457-9.547 23.307 23.307 0 0 1 15.672 14.04 24.27 24.27 0 0 1-4.543 21.331 245.651 245.651 0 0 1-43.781 52.551c-15.984 15.703-50.238 19.676-69.73 19.676zm0 0" fill="#000000" opacity="1" data-original="#000000" class=""></path><path d="M181.371 375.39a8.508 8.508 0 0 1-7.64-4.718c-8.055-16.106-3.692-37.406-1.481-45.703-4.473-9.356-16.488-35.969-16.488-51.98.379-14.176 11.617-25.673 25.785-26.368a16.683 16.683 0 0 1 11.937 4.707 17.876 17.876 0 0 1 4.946 13.129c0 13.688 14.957 37.02 23.097 45.168 10.235 10.23 5.856 41.3 2.336 58.906-.976 4.567-5.441 7.496-10.02 6.582-4.573-.914-7.57-5.34-6.714-9.926 3.766-18.875 4.789-39.71 2.144-43.714-9.304-9.274-27.91-36.68-27.91-57.016a6.18 6.18 0 0 0-.043-.762 9.046 9.046 0 0 0-4.511 1.934 9.558 9.558 0 0 0-3.98 7.36c0 10.968 9.917 34.886 16.167 47.386a8.573 8.573 0 0 1 .465 6.5c-2.047 6.219-6.129 24.844-.465 36.164a8.546 8.546 0 0 1-.371 8.3 8.538 8.538 0 0 1-7.254 4.052zm0 0" fill="#000000" opacity="1" data-original="#000000" class=""></path><path d="M127.613 350a8.507 8.507 0 0 1-6.953-3.652 8.497 8.497 0 0 1-.984-7.79c6.12-18.367-4.149-23.75-4.254-23.8a8.537 8.537 0 0 1-3.828-11.422 30.918 30.918 0 0 0-.793-22.441 8.537 8.537 0 0 1 5.418-10.739 8.535 8.535 0 0 1 10.773 5.344 53.49 53.49 0 0 1 2.344 28.645 33.273 33.273 0 0 1 9.305 25.199 182.854 182.854 0 0 1 40.37-.512 8.53 8.53 0 0 1 7.169 4.777 8.528 8.528 0 0 1-.645 8.586 8.53 8.53 0 0 1-7.8 3.653c-35.223-2.657-45.391 2.629-45.489 2.68a8.031 8.031 0 0 1-4.633 1.472zM70.422 418.059a8.533 8.533 0 0 1-7.625-12.352c10.043-20.094 22.781-32.086 37.871-35.644a44.616 44.616 0 0 1 34.613 7.035 8.533 8.533 0 0 1 1.653 11.867c-2.79 3.738-8.063 4.55-11.844 1.82a27.532 27.532 0 0 0-20.684-4.07c-9.855 2.41-18.715 11.367-26.344 26.62a8.546 8.546 0 0 1-7.64 4.724zm0 0" fill="#000000" opacity="1" data-original="#000000" class=""></path><path d="M130.16 400.988a8.532 8.532 0 0 1-8.531-8.531 39.308 39.308 0 0 1 12.02-30.008 58.397 58.397 0 0 1 39.746-12.637 8.534 8.534 0 0 1 7.867 9.067 8.53 8.53 0 0 1-8.985 7.96 41.466 41.466 0 0 0-27.02 8.122 22.669 22.669 0 0 0-6.562 17.496 8.536 8.536 0 0 1-2.5 6.035 8.542 8.542 0 0 1-6.035 2.496zM69.047 126.047a8.936 8.936 0 0 1-9.531-8.54 8.248 8.248 0 0 1 2.289-5.991 8.223 8.223 0 0 1 5.894-2.536h.91c11.72 0 17.27-1.28 19.145-8.734 3.172-10.164-1.7-21.101-11.375-25.547a8.534 8.534 0 0 1-2.813-11.738 8.537 8.537 0 0 1 11.739-2.813c15.98 8.414 23.906 26.856 19.004 44.239-5.325 21.191-25.817 21.66-35.262 21.66zM157.191 188.766a58.374 58.374 0 0 1-44.921-28.075c-10.727-14.433-9.313-34.539 3.328-47.328a32.32 32.32 0 0 1 23.93-11.847c11.331.367 18.917 9 25.6 16.613a46.477 46.477 0 0 0 11.52 10.7 38.867 38.867 0 0 1 21.782 33.23c0 4.414-3.063 15.699-31.434 25.16a30.859 30.859 0 0 1-9.805 1.547zm-18.367-70.196a19.344 19.344 0 0 0-11.164 6.856c-6.82 7.312-7.195 18.539-.875 26.289 8.293 13.41 24.863 22.594 34.809 19.312a44.056 44.056 0 0 0 19.636-10.289 21.93 21.93 0 0 0-12.218-16.648 57.993 57.993 0 0 1-16.703-14.703c-4.618-5.254-9.395-10.688-13.336-10.817zM70.43 204.723c-5.41 0-12.985-2.73-28.16-22.953a8.535 8.535 0 0 1 .511-10.864 8.453 8.453 0 0 1-3.414-6.8c0-1.418.336-2.813.988-4.07 7.864-14.903 16.633-22.712 26.07-23.204a22.278 22.278 0 0 1 19.634 11.945c13.082 19.625 8.675 34.442 4.882 41.524a25.327 25.327 0 0 1-20.511 14.422zM54.187 169.8a8.547 8.547 0 0 1 1.735 1.726 66.36 66.36 0 0 0 14.89 15.996 12.598 12.598 0 0 0 5.618-6.375 23.525 23.525 0 0 0-4.567-22.89c-2.172-3.242-3.773-4.399-4.554-4.38-1.164.06-5.809 2.747-11.72 13.864a8.705 8.705 0 0 1-1.398 2.059zM193.465 289.117a8.527 8.527 0 0 1-8.508-7.969 8.536 8.536 0 0 1 7.383-9.023c17.105-2.293 47.367-10.082 57.898-36.438 4.84-12.101 2.953-15.164 2.93-15.187-3.879-4.098-29.781 4.73-38.293 7.625l-5.215 1.762c-30.258 10.093-58.73-17.926-59.93-19.13a8.534 8.534 0 0 1 12.067-12.066c.207.2 22.27 21.754 42.465 15.004l5.12-1.73c20.973-7.145 44.759-15.238 56.169-3.211 9.738 10.262 2.816 27.582.539 33.277-13.746 34.403-50.68 44.223-71.469 47.016-.383.05-.77.074-1.156.07zM36.469 251.914a8.54 8.54 0 0 1-8.04-5.66 8.539 8.539 0 0 1 2.63-9.477L50.94 220.48a8.534 8.534 0 0 1 10.817 13.2l-19.883 16.3a8.522 8.522 0 0 1-5.406 1.934zM64.625 262.324a8.534 8.534 0 0 1-5.371-15.172L77.09 232.73a8.54 8.54 0 0 1 8.433-1.328 8.53 8.53 0 0 1 5.364 6.637 8.536 8.536 0 0 1-3.063 7.969L69.988 260.43a8.526 8.526 0 0 1-5.363 1.894zM90.398 275.207a8.529 8.529 0 0 1-8.046-5.668A8.535 8.535 0 0 1 85 260.06l21.676-17.664a8.534 8.534 0 0 1 12.008 1.226 8.538 8.538 0 0 1-1.223 12.008l-21.676 17.664a8.519 8.519 0 0 1-5.387 1.914zM206.96 409.227a8.532 8.532 0 0 1-8.53-8.532 8.533 8.533 0 0 1 8.53-8.535c22.235 0 42.259-8.277 63.466-17.043 6.902-2.855 13.824-5.715 20.844-8.297 21.523-7.918 31.613-30.172 41.37-51.687a681.008 681.008 0 0 1 4.333-9.434c3.648-7.996 5.285-12.273 6.007-14.414a13.93 13.93 0 0 0-7.015-1.195 25.87 25.87 0 0 0-19.504 13.226 79.417 79.417 0 0 1-12.156 14.942 61.82 61.82 0 0 0-4.485 4.566 113.363 113.363 0 0 1-35.726 26.067 94.977 94.977 0 0 1-46.344 6.324 8.535 8.535 0 0 1-7.598-9.219 8.529 8.529 0 0 1 9.063-7.781 75.609 75.609 0 0 0 37.262-4.598 96.496 96.496 0 0 0 30.789-22.355c1.718-1.899 3.632-3.903 5.546-5.625a64.018 64.018 0 0 0 9.426-11.758c13.489-20.227 32.157-23.176 44.07-19.57a17.768 17.768 0 0 1 14.254 15.75c0 1.89 0 5.058-8.105 22.824-1.465 3.101-2.86 6.187-4.27 9.297-10.687 23.566-22.8 50.277-51.019 60.656-6.809 2.504-13.52 5.285-20.215 8.05-21.816 9.016-44.367 18.34-69.992 18.34zM395.766 194.586l-.23-.004c-4.708-.125-8.423-4.043-8.302-8.75.016-.734 1.399-73.672-38.875-92.871a8.535 8.535 0 0 1-4.894-7.035c-.246-3.055 1.16-6.008 3.687-7.739s5.79-1.972 8.543-.632c50.297 23.976 48.688 105.28 48.594 108.73a8.527 8.527 0 0 1-8.523 8.3zm0 0" fill="#000000" opacity="1" data-original="#000000" class=""></path></g></svg>